<?xml version="1.0" encoding="UTF-8"?>
<svg version="1.1" xmlns="http://www.w3.org/2000/svg" width="1024" height="1024">
<path d="M0 0 C337.92 0 675.84 0 1024 0 C1024 337.92 1024 675.84 1024 1024 C686.08 1024 348.16 1024 0 1024 C0 686.08 0 348.16 0 0 Z " fill="#F2F2F2" transform="translate(0,0)"/>
<path d="M0 0 C1.20955353 0.00021149 2.41910706 0.00042297 3.66531372 0.00064087 C23.20359726 0.03466031 42.11972401 0.96408129 61.375 4.375 C62.45539551 4.56223633 63.53579102 4.74947266 64.64892578 4.94238281 C97.63894754 10.83146023 129.31129351 21.6727249 159.375 36.375 C160.27702148 36.81569824 161.17904297 37.25639648 162.10839844 37.71044922 C187.60725916 50.31038094 210.56303377 66.27017152 231.8671875 85.04638672 C233.21813836 86.23678092 234.57729654 87.41784562 235.9375 88.59765625 C246.52423529 97.91328681 256.68117076 107.8314166 265.4140625 118.91796875 C267.25685986 121.22697182 269.18480138 123.39222864 271.1875 125.5625 C322.71738537 183.04603747 346.90914236 265.52379796 346.75 341.5625 C346.74918427 343.04878403 346.74918427 343.04878403 346.74835205 344.56509399 C346.62398633 394.30491468 335.15890483 442.0708059 314.36621094 487.21630859 C313.38004374 489.36401557 312.41195796 491.51922957 311.4453125 493.67578125 C293.42186428 533.4529219 264.63246443 571.03828286 231.375 599.375 C229.99054688 600.57576172 229.99054688 600.57576172 228.578125 601.80078125 C196.99157881 629.05241217 160.59679891 651.00371278 121.375 665.375 C120.15707764 665.82286865 120.15707764 665.82286865 118.91455078 666.27978516 C94.14540233 675.25340557 68.43274543 680.77464986 42.375 684.375 C41.36699341 684.51533661 41.36699341 684.51533661 40.33862305 684.6585083 C27.9169588 686.34348737 15.64945156 686.69957 3.125 686.625 C2.17834473 686.62156586 1.23168945 686.61813171 0.25634766 686.61459351 C-48.78835259 686.40610179 -98.33718943 675.84052413 -142.625 654.375 C-143.26550293 654.06916992 -143.90600586 653.76333984 -144.56591797 653.44824219 C-149.29989058 651.18005496 -153.97061718 648.80179096 -158.625 646.375 C-159.4711084 645.93671875 -160.3172168 645.4984375 -161.18896484 645.046875 C-174.04736991 638.34734458 -186.01226844 631.04934435 -197.625 622.375 C-198.66527344 621.61703125 -199.70554687 620.8590625 -200.77734375 620.078125 C-219.48066751 606.32051236 -237.71726419 591.17836849 -252.80859375 573.4609375 C-254.10024325 571.97762388 -255.4303468 570.52741982 -256.78515625 569.1015625 C-297.39257067 526.18315702 -324.23427674 467.51686957 -336.625 410.375 C-336.82077637 409.49312012 -337.01655273 408.61124023 -337.21826172 407.70263672 C-356.32678236 320.53774299 -336.53074867 228.74833849 -288.92578125 154.11328125 C-283.96554589 146.46789234 -278.61186446 139.16476956 -272.93359375 132.03955078 C-271.63562745 130.38851827 -270.37905919 128.71187914 -269.125 127.02734375 C-261.54785219 117.07152978 -252.82266238 108.27609001 -244 99.4375 C-243.37547943 98.80948486 -242.75095886 98.18146973 -242.10751343 97.53442383 C-234.60295917 90.00663109 -227.00062442 82.93457475 -218.625 76.375 C-217.21122643 75.22650647 -215.79840184 74.07684334 -214.38671875 72.92578125 C-203.73366587 64.40256305 -192.59064864 56.9319359 -180.96142578 49.80664062 C-179.09005995 48.65996463 -177.22883731 47.4967416 -175.37109375 46.328125 C-136.66792485 22.66679903 -90.44497584 7.88042597 -45.625 2.375 C-44.65061981 2.24629517 -44.65061981 2.24629517 -43.65655518 2.11499023 C-29.11499171 0.21274224 -14.65150577 -0.02367247 0 0 Z " fill="#F5B723" transform="translate(509.625,170.625)"/>
<path d="M0 0 C11.65921381 10.45516419 24.28861275 25.85916772 26.66723633 41.89526367 C27.48120739 46.3852609 28.44815002 48.82413173 32.01757812 51.79736328 C35.61063212 54.06575795 39.26068812 56.11288545 43.00683594 58.11230469 C44.33860317 58.85415353 45.66868013 59.5990447 46.99707031 60.34692383 C50.75198901 62.4509895 54.53221093 64.50428148 58.31933594 66.54980469 C77.79112712 77.16442906 95.62200382 88.5303874 103.31933594 110.54980469 C103.59261719 111.57332031 103.86589844 112.59683594 104.14746094 113.65136719 C106.48289544 122.20754994 109.75563403 125.17601184 117.31933594 129.54980469 C118.91520302 130.61458814 120.49863277 131.69823893 122.06933594 132.79980469 C123.30490234 133.66605469 123.30490234 133.66605469 124.56542969 134.54980469 C133.79675067 141.25396971 142.56957213 148.53065352 151.24121094 155.93652344 C154.04640914 158.32862738 156.89396751 160.6643632 159.75683594 162.98730469 C205.14807186 200.03601244 205.14807186 200.03601244 210.31933594 215.54980469 C211.16767334 227.63861264 206.07061405 236.51872009 199.47949219 246.27246094 C194.63598997 253.5530742 192.27250393 259.86021819 190.53808594 268.39355469 C188.06822847 280.24804586 183.99191087 290.84927026 177.06542969 300.86230469 C175.09484642 303.33915775 175.09484642 303.33915775 175.38183594 305.86230469 C175.69121094 306.74917969 176.00058594 307.63605469 176.31933594 308.54980469 C176.82098037 310.04925554 177.32082428 311.54930939 177.81933594 313.04980469 C178.20605469 314.14808594 178.20605469 314.14808594 178.60058594 315.26855469 C184.23274342 333.14453277 178.56539592 355.26451468 170.31005859 371.53955078 C165.6637645 380.22498913 160.15154007 387.43769647 153.31933594 394.54980469 C152.25189411 395.8373904 151.18920347 397.1289332 150.13183594 398.42480469 C142.09313663 407.61988302 130.14056945 419.09510311 118.24511719 422.40527344 C115.31933594 422.54980469 115.31933594 422.54980469 113.29980469 421.43261719 C112.708125 420.85253906 112.11644531 420.27246094 111.50683594 419.67480469 C110.8171875 419.02125 110.12753906 418.36769531 109.41699219 417.69433594 C108.06966227 416.31689809 106.74206133 414.91972326 105.44042969 413.49902344 C100.53025359 408.24292495 95.2189737 404.20822187 89.25683594 400.23730469 C88.50096191 399.73368408 87.74508789 399.23006348 86.96630859 398.71118164 C79.73171149 393.99854274 72.44457697 390.45167649 64.31933594 387.54980469 C64.93679688 388.39800781 65.55425781 389.24621094 66.19042969 390.12011719 C79.68186611 408.75472755 90.92797066 427.63641019 98.31933594 449.54980469 C98.54669434 450.21544434 98.77405273 450.88108398 99.00830078 451.56689453 C104.25225325 467.77437559 104.96763496 490.8809178 101.31933594 507.54980469 C99.796875 509.16674805 99.796875 509.16674805 97.83496094 510.20214844 C97.10728516 510.59772949 96.37960937 510.99331055 95.62988281 511.40087891 C94.86740234 511.78002441 94.10492187 512.15916992 93.31933594 512.54980469 C92.61357422 512.92250488 91.9078125 513.29520508 91.18066406 513.67919922 C74.01599357 522.49504135 55.50383595 528.16663055 37.16186523 533.96551514 C35.50456146 534.49106731 33.85022544 535.02595635 32.19628906 535.56201172 C31.32423828 535.83770996 30.4521875 536.1134082 29.55371094 536.39746094 C28.83924805 536.62570557 28.12478516 536.8539502 27.38867188 537.08911133 C24.98611145 537.62398999 22.77297941 537.62885939 20.31933594 537.54980469 C20.24457031 536.49148438 20.16980469 535.43316406 20.09277344 534.34277344 C16.09809766 485.70814151 -3.09958067 439.63336587 -35.32275391 403.11376953 C-37.34026071 400.79011822 -39.25722403 398.38900548 -41.18066406 395.98730469 C-44.53140011 391.85351619 -48.04868618 387.93381361 -51.68066406 384.04980469 C-56.94500729 378.41356002 -61.86646936 372.57759438 -66.68066406 366.54980469 C-67.63652241 365.38477888 -68.59362386 364.22077222 -69.55175781 363.05761719 C-84.81402814 344.43396973 -98.20574894 323.96593608 -104.68066406 300.54980469 C-105.02677734 299.38964844 -105.02677734 299.38964844 -105.37988281 298.20605469 C-110.63275722 279.42982278 -108.36073816 257.90995288 -99.68066406 240.54980469 C-97.24934479 236.98133217 -94.6074436 233.72150302 -91.68066406 230.54980469 C-91.14699219 229.96457031 -90.61332031 229.37933594 -90.06347656 228.77636719 C-88.68066406 227.54980469 -88.68066406 227.54980469 -86.68066406 227.54980469 C-86.38675781 229.00386719 -86.38675781 229.00386719 -86.08691406 230.48730469 C-81.29547626 252.57018779 -69.84126458 270.03435093 -50.80566406 282.61230469 C-35.86243816 291.38036189 -19.07983918 295.20865997 -2.39306641 299.26635742 C28.5667287 306.84791281 28.5667287 306.84791281 36.88183594 319.67480469 C38.73206261 322.75000901 40.48901689 325.8594287 42.21386719 329.00683594 C46.34683013 336.38131826 49.25393075 340.00833169 57.31933594 342.54980469 C81.0626011 351.96752439 104.99877032 366.60569028 120.31933594 387.54980469 C120.31933594 388.20980469 120.31933594 388.86980469 120.31933594 389.54980469 C136.08855122 380.47974904 146.6953593 364.30974459 152.25683594 347.23730469 C153.40413545 342.44145019 153.62300199 337.71022238 153.69433594 332.79980469 C153.70843506 332.09041748 153.72253418 331.38103027 153.73706055 330.65014648 C153.68482496 325.0040747 152.59184257 320.25257258 148.85449219 315.80761719 C140.53938248 309.41137895 129.35371815 310.89983518 119.31933594 311.54980469 C109.48072225 313.0777321 100.23503795 317.48846358 91.13208008 321.37573242 C76.64164009 327.52552474 76.64164009 327.52552474 70.31933594 325.54980469 C71.57331806 318.07541122 79.39361574 313.30421012 85.13183594 309.11230469 C100.54929152 298.52917497 117.47703501 292.22317684 136.06933594 290.61230469 C143.39687576 289.95464887 150.2984724 289.18809956 156.31933594 284.54980469 C160.91207441 278.75716157 162.29521821 272.89536303 162.84277344 265.64746094 C162.00656707 262.29639513 160.05412867 260.47497474 157.31933594 258.54980469 C153.84365163 256.85489487 150.25359866 255.52293542 146.63183594 254.17480469 C125.61137793 245.95142049 125.61137793 245.95142049 121.31933594 236.54980469 C121.25683594 233.86230469 121.25683594 233.86230469 122.31933594 231.54980469 C125.78721137 229.09420496 128.76715036 228.04061795 132.93261719 227.33886719 C134.00882324 227.14832764 135.0850293 226.95778809 136.19384766 226.76147461 C137.89565186 226.471073 137.89565186 226.471073 139.63183594 226.17480469 C148.80692374 224.52670358 157.541165 222.53043162 166.34277344 219.46777344 C169.31933594 218.54980469 169.31933594 218.54980469 173.31933594 218.54980469 C173.31933594 217.88980469 173.31933594 217.22980469 173.31933594 216.54980469 C172.65933594 216.54980469 171.99933594 216.54980469 171.31933594 216.54980469 C169.87402344 215.04589844 169.87402344 215.04589844 168.19433594 212.98730469 C165.26337775 209.55389653 162.23982315 206.56573486 158.79980469 203.65136719 C156.8246102 201.97789532 154.87440096 200.28491631 152.93261719 198.57324219 C145.53089601 192.06414706 137.99657813 185.86302836 130.12695312 179.92773438 C128.11664936 178.39529861 126.12706847 176.83836216 124.13964844 175.27636719 C116.44297646 169.22886156 108.69208192 163.28206453 100.75683594 157.54980469 C100.04374268 157.03442139 99.33064941 156.51903809 98.59594727 155.98803711 C97.90525146 155.49279541 97.21455566 154.99755371 96.50292969 154.48730469 C95.48513428 153.7565271 95.48513428 153.7565271 94.44677734 153.01098633 C92.96294393 151.99185126 91.44591896 151.02011556 89.90673828 150.08666992 C84.68583287 146.88636801 82.12691369 144.60923226 80.06933594 138.61230469 C79.83811035 137.97059326 79.60688477 137.32888184 79.36865234 136.66772461 C78.64807863 134.63892243 77.97657977 132.59994082 77.31933594 130.54980469 C77.09793945 129.85951172 76.87654297 129.16921875 76.6484375 128.45800781 C76.42897461 127.77158203 76.20951172 127.08515625 75.98339844 126.37792969 C75.76586914 125.7049585 75.54833984 125.0319873 75.32421875 124.33862305 C74.7266172 122.46359027 74.15881567 120.57913612 73.59277344 118.69433594 C71.31039193 113.05839387 66.78528798 110.27059297 61.94433594 106.86230469 C61.3278418 106.42660156 60.71134766 105.99089844 60.07617188 105.54199219 C44.7053387 94.75818447 28.59107354 85.20858788 11.53271484 77.32495117 C6.53245314 74.93389305 2.65881714 72.21995472 0.13183594 67.18261719 C-0.27035156 65.94125 -0.27035156 65.94125 -0.68066406 64.67480469 C-1.00679687 63.71058594 -1.33292969 62.74636719 -1.66894531 61.75292969 C-2.36831778 59.53870025 -3.05224423 57.31955423 -3.72363281 55.09667969 C-9.4939623 35.70471869 -9.4939623 35.70471869 -22.85253906 21.67480469 C-42.60700808 13.81667337 -61.54243327 10.93661205 -82.68066406 9.54980469 C-81.37023349 13.4810964 -79.99055133 13.67048574 -76.36816406 15.54980469 C-56.9615456 26.56686362 -45.457947 45.46428609 -38.99316406 66.40136719 C-38.58041261 69.2390334 -38.59306869 70.86534309 -39.68066406 73.54980469 C-41.99271492 74.91766724 -43.95291707 75.8668878 -46.43066406 76.79980469 C-47.05199219 77.05503906 -47.67332031 77.31027344 -48.31347656 77.57324219 C-51.74247264 78.94773429 -55.0587672 79.87816386 -58.68066406 80.54980469 C-59.01275879 80.01613281 -59.34485352 79.48246094 -59.68701172 78.93261719 C-61.22283501 76.46933349 -62.76421154 74.00956935 -64.30566406 71.54980469 C-64.82773437 70.710625 -65.34980469 69.87144531 -65.88769531 69.00683594 C-79.37455558 47.52776218 -96.62343123 34.90952881 -121.33349609 28.71508789 C-139.74244231 24.58752984 -161.91110207 23.5615164 -179.68066406 30.54980469 C-180.66679687 30.90042969 -181.65292969 31.25105469 -182.66894531 31.61230469 C-201.53032861 38.8071105 -217.14212917 50.80603719 -231.68066406 64.54980469 C-233.50585318 66.27217331 -235.33259454 67.99277106 -237.16357422 69.70898438 C-238.34554625 70.81745775 -239.52388036 71.9298289 -240.69775391 73.046875 C-243.51994536 75.69709305 -246.35662711 78.09289908 -249.53613281 80.30761719 C-252.6962421 82.19044829 -252.6962421 82.19044829 -253.68066406 84.54980469 C-253.12419189 84.28353271 -252.56771973 84.01726074 -251.99438477 83.74291992 C-238.49795284 77.3307004 -225.01345829 71.79536318 -210.68066406 67.54980469 C-209.96185059 67.33598145 -209.24303711 67.1221582 -208.50244141 66.90185547 C-176.9861394 57.75099745 -141.62180717 58.64234815 -112.40332031 74.38574219 C-103.42016032 79.4735088 -95.93439874 85.93338328 -88.83691406 93.38574219 C-86.88917763 95.34053564 -84.93223229 96.96347253 -82.68066406 98.54980469 C-82.9362773 100.89292599 -83.27337179 103.22823872 -83.68066406 105.54980469 C-87.15082457 107.28488494 -90.88489835 107.13530936 -94.55712891 105.93798828 C-96.52270408 105.08934445 -98.44443661 104.17681591 -100.36816406 103.23730469 C-117.43608657 95.48004292 -137.33440808 92.94109467 -155.42211914 99.28930664 C-170.96816446 105.36985779 -180.26449207 115.92738165 -187.08300781 130.79199219 C-188.92401304 135.01578119 -190.31378829 138.93195529 -190.68066406 143.54980469 C-190.76058594 144.55398438 -190.84050781 145.55816406 -190.92285156 146.59277344 C-191.27621782 155.45810917 -189.86731684 163.68207743 -184.43066406 170.92480469 C-178.47920106 176.60574664 -172.79661719 179.29108048 -164.68066406 180.54980469 C-164.35066406 179.55980469 -164.02066406 178.56980469 -163.68066406 177.54980469 C-164.68606086 175.69367802 -164.68606086 175.69367802 -166.11816406 173.73730469 C-170.23142188 166.65974375 -169.64392322 159.07550831 -167.98144531 151.26464844 C-165.1058215 141.66710231 -160.59206481 135.08670885 -152.04394531 129.79980469 C-140.76244207 123.83272859 -127.8025876 122.93295589 -115.68066406 126.54980469 C-113.68137761 127.09409914 -111.68134749 127.63566777 -109.68066406 128.17480469 C-108.013766 128.63229573 -106.34701708 129.09033235 -104.68066406 129.54980469 C-105.53018296 134.14947414 -108.30277382 136.29954224 -111.61816406 139.36230469 C-118.58305906 146.10102354 -123.70433639 153.27038962 -128.68066406 161.54980469 C-129.22899902 162.45762695 -129.77733398 163.36544922 -130.34228516 164.30078125 C-137.64536462 176.45728664 -144.68730041 188.6908038 -150.68066406 201.54980469 C-151.20917969 202.66613281 -151.73769531 203.78246094 -152.28222656 204.93261719 C-159.74556913 221.42851794 -163.54870008 238.70508963 -166.67675781 256.45385742 C-166.91007813 257.74751221 -167.14339844 259.04116699 -167.38378906 260.37402344 C-167.68784668 262.12332153 -167.68784668 262.12332153 -167.99804688 263.90795898 C-168.22331055 264.77976807 -168.44857422 265.65157715 -168.68066406 266.54980469 C-169.34066406 266.87980469 -170.00066406 267.20980469 -170.68066406 267.54980469 C-172.2653242 261.46591586 -172.96090808 255.85391937 -172.87597656 249.57714844 C-172.87314667 248.7686293 -172.87031677 247.96011017 -172.86740112 247.12709045 C-172.85633183 244.58033551 -172.83125364 242.03395079 -172.80566406 239.48730469 C-172.79561708 237.74577336 -172.78649426 236.00423644 -172.77832031 234.26269531 C-172.75643619 230.02492552 -172.72200052 225.78742756 -172.68066406 221.54980469 C-175.74161031 223.32120686 -178.53416059 225.12149222 -181.20410156 227.44042969 C-181.83316406 227.98570312 -182.46222656 228.53097656 -183.11035156 229.09277344 C-183.75230469 229.65609375 -184.39425781 230.21941406 -185.05566406 230.79980469 C-186.00699219 231.62158203 -186.00699219 231.62158203 -186.97753906 232.45996094 C-193.55033133 238.18767991 -199.64839175 244.15088587 -204.99316406 251.04980469 C-205.45972412 251.65091064 -205.92628418 252.2520166 -206.40698242 252.87133789 C-240.46781289 297.29825795 -252.1968358 352.44982857 -245.61816406 407.67480469 C-242.46862799 430.51575415 -236.38852284 452.55649902 -229.23730469 474.41625977 C-229.00184433 475.1383815 -228.76638397 475.86050323 -228.52378845 476.60450745 C-228.08011719 477.95956884 -227.63208679 479.31321353 -227.17897034 480.66514587 C-226.26769899 483.43583095 -225.68066406 485.60817645 -225.68066406 488.54980469 C-229.5339865 486.91813466 -232.44103905 484.33500762 -235.55566406 481.61230469 C-240.77530336 477.11495949 -246.09994384 472.79493257 -251.57080078 468.60668945 C-252.674431 467.75385415 -253.76730954 466.88695845 -254.85009766 466.0078125 C-256.18852224 464.94178535 -257.56796646 463.92670439 -258.96826172 462.94335938 C-266.42016768 457.25137487 -267.84604405 451.14443955 -269.55566406 442.17480469 C-269.83706134 440.8269244 -270.12109943 439.47959285 -270.40771484 438.1328125 C-271.21515382 434.28041942 -271.95509546 430.4184614 -272.68066406 426.54980469 C-272.86886719 425.56270508 -273.05707031 424.57560547 -273.25097656 423.55859375 C-278.16468797 397.34238347 -278.01451296 370.85087756 -273.68066406 344.54980469 C-273.53032715 343.63166992 -273.37999023 342.71353516 -273.22509766 341.76757812 C-266.08809334 300.39815126 -247.88565556 259.30604406 -221.68066406 226.54980469 C-221.03613281 225.70289063 -220.39160156 224.85597656 -219.72753906 223.98339844 C-214.81321597 217.6904389 -209.36287897 212.02596023 -203.74316406 206.36230469 C-202.60524414 205.21048706 -202.60524414 205.21048706 -201.44433594 204.03540039 C-200.72955078 203.32472412 -200.01476562 202.61404785 -199.27832031 201.88183594 C-198.63386963 201.23964111 -197.98941895 200.59744629 -197.32543945 199.93579102 C-195.68066406 198.54980469 -195.68066406 198.54980469 -193.68066406 198.54980469 C-193.68066406 197.55980469 -193.68066406 196.56980469 -193.68066406 195.54980469 C-194.24914062 195.27652344 -194.81761719 195.00324219 -195.40332031 194.72167969 C-203.22518147 190.69670825 -210.14770214 185.90044197 -213.68066406 177.54980469 C-218.41337627 178.89593541 -221.9205556 180.84007285 -225.93066406 183.67480469 C-226.48987549 184.06788818 -227.04908691 184.46097168 -227.62524414 184.8659668 C-232.16131167 188.08904708 -236.49303699 191.53793449 -240.75488281 195.11621094 C-242.68066406 196.54980469 -242.68066406 196.54980469 -244.68066406 196.54980469 C-244.68066406 197.20980469 -244.68066406 197.86980469 -244.68066406 198.54980469 C-246.14941406 199.99511719 -246.14941406 199.99511719 -248.18066406 201.67480469 C-278.82918571 227.99081281 -296.74652336 267.10649238 -306.68066406 305.54980469 C-306.98746094 306.68804688 -307.29425781 307.82628906 -307.61035156 308.99902344 C-308.4617478 312.49676984 -309.11924912 315.99659661 -309.68066406 319.54980469 C-309.81601562 320.38979004 -309.95136719 321.22977539 -310.09082031 322.09521484 C-313.79373132 346.4268429 -312.97548927 371.01429956 -312.68066406 395.54980469 C-328.02281198 381.17629466 -337.46526481 343.97633925 -338.18066406 323.48730469 C-338.07157552 321.50413093 -337.89732792 319.52412362 -337.68066406 317.54980469 C-337.57987549 316.53394287 -337.57987549 316.53394287 -337.47705078 315.49755859 C-334.61096142 288.11375199 -324.46435812 262.70671034 -311.68066406 238.54980469 C-311.07867187 237.40382813 -310.47667969 236.25785156 -309.85644531 235.07714844 C-299.46144625 216.09592373 -285.50596676 199.21633297 -270.68066406 183.54980469 C-269.80539062 182.62039063 -268.93011719 181.69097656 -268.02832031 180.73339844 C-261.61514459 174.1130423 -254.7647989 168.44077842 -247.43164062 162.88183594 C-245.74153175 161.59610894 -244.06463343 160.2951468 -242.39160156 158.98730469 C-236.67118006 154.52442324 -230.87339916 150.17509318 -224.99316406 145.92480469 C-224.39246094 145.48644287 -223.79175781 145.04808105 -223.17285156 144.59643555 C-218.91653807 141.54980469 -218.91653807 141.54980469 -216.68066406 141.54980469 C-216.35066406 140.39480469 -216.02066406 139.23980469 -215.68066406 138.04980469 C-210.24704094 121.8258262 -200.5681546 108.53579114 -189.68066406 95.54980469 C-201.58994796 96.32580856 -211.09165452 99.08132649 -221.68066406 104.54980469 C-222.3300293 104.88399414 -222.97939453 105.21818359 -223.6484375 105.5625 C-250.34762462 119.53006877 -275.6804032 138.13757706 -293.68066406 162.54980469 C-294.74634912 163.95009342 -295.81283504 165.34977284 -296.87988281 166.74902344 C-308.51090943 182.12612206 -318.52002158 198.07524247 -326.68066406 215.54980469 C-326.97924316 216.18031738 -327.27782227 216.81083008 -327.58544922 217.46044922 C-335.94551418 235.24210237 -341.23951025 253.70115925 -345.37207031 272.86083984 C-345.64535156 274.10397949 -345.91863281 275.34711914 -346.20019531 276.62792969 C-346.43843018 277.74586914 -346.67666504 278.86380859 -346.92211914 280.015625 C-347.17243896 280.8519043 -347.42275879 281.68818359 -347.68066406 282.54980469 C-348.34066406 282.87980469 -349.00066406 283.20980469 -349.68066406 283.54980469 C-352.96673886 269.94889829 -354.3204223 257.04496619 -354.20214844 243.05908203 C-354.18067448 240.05126397 -354.20210357 237.04583319 -354.22753906 234.03808594 C-354.24667749 221.10935541 -352.81962671 209.08841236 -349.68066406 196.54980469 C-349.29056152 194.9676416 -349.29056152 194.9676416 -348.89257812 193.35351562 C-348.19344461 190.7590378 -347.41130738 188.22170947 -346.55566406 185.67480469 C-346.2349292 184.71977051 -345.91419434 183.76473633 -345.58374023 182.78076172 C-336.93226416 158.38129414 -324.79660615 134.22454916 -310.68066406 112.54980469 C-310.13039551 111.70417969 -309.58012695 110.85855469 -309.01318359 109.98730469 C-302.72750116 100.41735768 -296.1517545 91.23772772 -288.68066406 82.54980469 C-287.82096762 81.51990774 -286.96297657 80.48858551 -286.10644531 79.45605469 C-274.02142557 64.93661114 -261.28378114 50.55544625 -246.46582031 38.78027344 C-243.642144 36.51895622 -240.91824038 34.16424821 -238.18066406 31.79980469 C-180.72178418 -16.07020649 -64.89387964 -55.99500945 0 0 Z " fill="#FEFEFD" transform="translate(559.6806640625,266.4501953125)"/>
<path d="M0 0 C0.66 0 1.32 0 2 0 C3.47915522 2.95831045 3.37407322 6.05194618 3.578125 9.3046875 C3.68404975 10.83877442 3.79102863 12.37278883 3.89892578 13.90673828 C3.95534241 14.71628967 4.01175903 15.52584106 4.06988525 16.35992432 C8.78413077 82.18842817 32.11955285 146.58047258 57.00390625 207.23608398 C57.40738281 208.22809814 57.81085938 209.2201123 58.2265625 210.2421875 C58.57283691 211.0760498 58.91911133 211.90991211 59.27587891 212.76904297 C60 215 60 215 60 219 C52.03270729 218.0250992 44.27149675 216.22054321 36.5 214.25 C35.53239746 214.02231934 34.56479492 213.79463867 33.56787109 213.56005859 C32.64828613 213.31852051 31.72870117 213.07698242 30.78125 212.828125 C29.5447168 212.5172998 29.5447168 212.5172998 28.28320312 212.20019531 C22.90133777 209.37114804 21.03128129 203.10110094 19.046875 197.671875 C18.78554276 196.97409439 18.52421051 196.27631378 18.25495911 195.55738831 C17.41054622 193.29162036 16.57918358 191.02138192 15.75 188.75 C15.46309296 187.97022797 15.17618591 187.19045593 14.88058472 186.38705444 C-6.23586472 128.92400369 -25.13234073 59.22580294 0 0 Z " fill="#FEFEFC" transform="translate(379,583)"/>
<path d="M0 0 C1.91852957 2.87779436 3.65313378 5.80060528 5.38671875 8.79296875 C6.0767363 9.98020682 6.76701464 11.16729335 7.45751953 12.35424805 C7.8205719 12.97858734 8.18362427 13.60292664 8.55767822 14.2461853 C14.42548233 24.32853156 20.38572465 34.3288291 26.625 44.1875 C50.42724201 81.97233803 75 123.86556054 75 170 C66.42 170 57.84 170 49 170 C45.62630885 162.12805397 45.62630885 162.12805397 44.96020508 159.12963867 C44.72847595 158.11353516 44.72847595 158.11353516 44.49206543 157.0769043 C44.33612915 156.36445557 44.18019287 155.65200684 44.01953125 154.91796875 C43.66159774 153.34455788 43.30326473 151.77123785 42.94458008 150.19799805 C42.76053619 149.38116547 42.57649231 148.56433289 42.38687134 147.7227478 C38.64897759 131.22386233 34.37744815 115.04894084 29 99 C28.62974701 97.89334991 28.62974701 97.89334991 28.25201416 96.76434326 C22.56602533 79.78577435 16.79125976 62.83977144 10.6574707 46.01733398 C6.67751517 35.10181536 3.20129367 24.42180679 1 13 C0.80664062 12.11828125 0.61328125 11.2365625 0.4140625 10.328125 C-0.20448073 6.85027815 -0.05979345 3.52781373 0 0 Z " fill="#FEFEFC" transform="translate(445,641)"/>
<path d="M0 0 C5.13017043 3.55423573 7.58775417 7.25171201 10.375 12.75 C13.44214553 18.52536977 16.66861854 23.16971223 21.203125 27.921875 C25.14642587 32.48238818 28.27536978 37.98613773 28.3125 44.125 C28.209375 45.07375 28.10625 46.0225 28 47 C24.83645933 45.84024986 21.87043078 44.44271432 18.88671875 42.890625 C4.21347602 35.37597948 -10.90805066 29.94142163 -26.5012207 24.68457031 C-27.3545549 24.39531677 -28.2078891 24.10606323 -29.08708191 23.80804443 C-30.69692787 23.26394081 -32.30866242 22.72538099 -33.92256165 22.19342041 C-37.93864173 20.84025253 -41.44310791 19.36950099 -45 17 C-44.01382009 14.36279979 -43.36598784 13.20797833 -40.8828125 11.796875 C-39.97273437 11.45140625 -39.06265625 11.1059375 -38.125 10.75 C-37.06667969 10.3375 -36.00835938 9.925 -34.91796875 9.5 C-34.31130371 9.26925781 -33.70463867 9.03851563 -33.07958984 8.80078125 C-30.66404194 7.87063367 -28.26372499 6.90595337 -25.86328125 5.9375 C-22.32609065 4.51089475 -18.78829135 3.08601081 -15.24609375 1.671875 C-14.50029053 1.3737793 -13.7544873 1.07568359 -12.98608398 0.76855469 C-8.49244399 -0.97034866 -4.63092013 -1.54093665 0 0 Z " fill="#FEFDFB" transform="translate(601,400)"/>
<path d="M0 0 C0 4.10560643 -1.6620274 5.42771384 -4.25 8.5625 C-5.03890625 9.53316406 -5.8278125 10.50382812 -6.640625 11.50390625 C-8.77828204 13.76543414 -10.16101163 14.87775033 -13 16 C-13.66 16.33 -14.32 16.66 -15 17 C-13.67879172 14.06769807 -12.25361803 12.01335101 -9.9609375 9.765625 C-9.38085938 9.19199219 -8.80078125 8.61835938 -8.203125 8.02734375 C-7.59984375 7.44082031 -6.9965625 6.85429687 -6.375 6.25 C-5.76398438 5.64800781 -5.15296875 5.04601562 -4.5234375 4.42578125 C-3.02011376 2.94594695 -1.51065144 1.47235324 0 0 Z " fill="#F3AC0F" transform="translate(455,398)"/>
<path d="M0 0 C1.33333333 0.66666667 2.66666667 1.33333333 4 2 C4.70125 2.28875 5.4025 2.5775 6.125 2.875 C8 4 8 4 8.890625 5.8359375 C10.15369356 8.29981068 11.63596086 9.83462898 13.625 11.75 C14.57246094 12.67039062 14.57246094 12.67039062 15.5390625 13.609375 C16.02117188 14.06828125 16.50328125 14.5271875 17 15 C16.67 15.66 16.34 16.32 16 17 C13.32932797 14.3581833 10.66414667 11.7108958 8 9.0625 C7.236875 8.30775391 6.47375 7.55300781 5.6875 6.77539062 C4.965625 6.05673828 4.24375 5.33808594 3.5 4.59765625 C2.8296875 3.93258057 2.159375 3.26750488 1.46875 2.58227539 C0 1 0 1 0 0 Z " fill="#F2FAFB" transform="translate(748,261)"/>
<path d="M0 0 C-0.33 0.99 -0.66 1.98 -1 3 C-3.31 3.33 -5.62 3.66 -8 4 C-8.103125 4.61875 -8.20625 5.2375 -8.3125 5.875 C-9 8 -9 8 -12 10 C-12.99 10 -13.98 10 -15 10 C-13.60863119 5.82589358 -11.07832892 4.05480779 -7.18359375 2.078125 C-2.48820755 0 -2.48820755 0 0 0 Z " fill="#F6C44E" transform="translate(321,341)"/>
<path d="M0 0 C0.66 0.33 1.32 0.66 2 1 C0.90033225 2.29549899 -0.20491801 3.58626071 -1.3125 4.875 C-1.92738281 5.59429687 -2.54226563 6.31359375 -3.17578125 7.0546875 C-5 9 -5 9 -8 11 C-7.43040847 7.37386801 -6.07625466 5.74482259 -3.4375 3.25 C-2.79683594 2.63640625 -2.15617187 2.0228125 -1.49609375 1.390625 C-1.00238281 0.93171875 -0.50867188 0.4728125 0 0 Z " fill="#F4B01A" transform="translate(369,501)"/>
<path d="M0 0 C0.74609375 1.703125 0.74609375 1.703125 1 4 C-0.65234375 6.359375 -0.65234375 6.359375 -2.9375 8.75 C-4.06478516 9.94882812 -4.06478516 9.94882812 -5.21484375 11.171875 C-5.80394531 11.77515625 -6.39304688 12.3784375 -7 13 C-7.33 12.34 -7.66 11.68 -8 11 C-6.85539001 9.35331565 -5.70927742 7.70767566 -4.5625 6.0625 C-3.92441406 5.14597656 -3.28632813 4.22945313 -2.62890625 3.28515625 C-1 1 -1 1 0 0 Z " fill="#F5AF18" transform="translate(230,312)"/>
<path d="M0 0 C-1.41013012 3.40781445 -2.96580302 4.94745499 -6 7 C-6.7425 7.556875 -7.485 8.11375 -8.25 8.6875 C-8.8275 9.120625 -9.405 9.55375 -10 10 C-10.66 9.67 -11.32 9.34 -12 9 C-10.38050958 7.49405319 -8.75424026 5.99539332 -7.125 4.5 C-6.22007812 3.6646875 -5.31515625 2.829375 -4.3828125 1.96875 C-2 0 -2 0 0 0 Z " fill="#F4B01A" transform="translate(703,672)"/>
<path d="M0 0 C0.66 0.33 1.32 0.66 2 1 C-0.64 3.64 -3.28 6.28 -6 9 C-6.99 8.67 -7.98 8.34 -9 8 C-6.03 5.36 -3.06 2.72 0 0 Z " fill="#F4AE12" transform="translate(290,248)"/>
<path d="M0 0 C3.65524228 1.21841409 3.38107832 1.76215663 5 5 C7.03317007 6.73425773 7.03317007 6.73425773 9 8 C8.67 8.99 8.34 9.98 8 11 C6.84501103 9.92643323 5.70132133 8.84070212 4.5625 7.75 C3.92441406 7.14671875 3.28632812 6.5434375 2.62890625 5.921875 C0.91483694 3.89951984 0.40641122 2.58729395 0 0 Z " fill="#F4AC0E" transform="translate(613,416)"/>
<path d="M0 0 C0.33 0.99 0.66 1.98 1 3 C-1.64 5.31 -4.28 7.62 -7 10 C-7 7 -7 7 -5.46875 5.17578125 C-4.8190625 4.56089844 -4.169375 3.94601562 -3.5 3.3125 C-2.8503125 2.68988281 -2.200625 2.06726563 -1.53125 1.42578125 C-0.77328125 0.72001953 -0.77328125 0.72001953 0 0 Z " fill="#F5AE0F" transform="translate(258,278)"/>
<path d="M0 0 C1.9375 0.8125 1.9375 0.8125 4 2 C4.33 2.99 4.66 3.98 5 5 C5.66 5 6.32 5 7 5 C7 5.66 7 6.32 7 7 C4.20171644 6.61402985 3.1794116 6.19863427 1.25 4.0625 C0 2 0 2 0 0 Z " fill="#F6BF3F" transform="translate(726,478)"/>
<path d="M0 0 C0.66 0.33 1.32 0.66 2 1 C0.68 3.64 -0.64 6.28 -2 9 C-2.66 9 -3.32 9 -4 9 C-2.94124926 5.59687262 -1.99097846 2.98646769 0 0 Z " fill="#F3AD14" transform="translate(340,537)"/>
</svg>
